<?xml version="1.0" encoding="UTF-8"?>
<svg width="800" height="360" viewBox="0 0 800 360" fill="none" xmlns="http://www.w3.org/2000/svg" role="img" aria-label="Illustration of booking steps">
  <rect width="800" height="360" rx="24" fill="#F8FAFB"/>
  <g transform="translate(40,40)">
    <circle cx="60" cy="40" r="32" fill="#0f766e"/>
    <rect x="40" y="28" width="40" height="24" rx="4" fill="#ffffff" opacity="0.12"/>
    <text x="60" y="48" fill="white" font-size="18" font-family="Inter, Arial, sans-serif" text-anchor="middle">1</text>

    <circle cx="260" cy="40" r="32" fill="#0ea5a3"/>
    <text x="260" y="48" fill="white" font-size="18" font-family="Inter, Arial, sans-serif" text-anchor="middle">2</text>

    <circle cx="460" cy="40" r="32" fill="#34d399"/>
    <text x="460" y="48" fill="white" font-size="18" font-family="Inter, Arial, sans-serif" text-anchor="middle">3</text>

    <line x1="92" y1="40" x2="228" y2="40" stroke="#c7f0ec" stroke-width="6" stroke-linecap="round"/>
    <line x1="292" y1="40" x2="428" y2="40" stroke="#c7f0ec" stroke-width="6" stroke-linecap="round"/>

    <g transform="translate(28,88)">
      <rect width="224" height="140" rx="12" fill="#ffffff" opacity="0.06"/>
      <text x="16" y="28" fill="#083344" font-size="14" font-family="Inter, Arial, sans-serif">Choose a service</text>
      <text x="16" y="54" fill="#0f766e" font-size="20" font-family="Inter, Arial, sans-serif" font-weight="600">Whitening, Cleaning...</text>
    </g>

    <g transform="translate(228,88)">
      <rect width="224" height="140" rx="12" fill="#ffffff" opacity="0.06"/>
      <text x="16" y="28" fill="#083344" font-size="14" font-family="Inter, Arial, sans-serif">Pick a location</text>
      <text x="16" y="54" fill="#0ea5a3" font-size="20" font-family="Inter, Arial, sans-serif" font-weight="600">Nearest branch</text>
    </g>

    <g transform="translate(428,88)">
      <rect width="224" height="140" rx="12" fill="#ffffff" opacity="0.06"/>
      <text x="16" y="28" fill="#083344" font-size="14" font-family="Inter, Arial, sans-serif">Confirm visit</text>
      <text x="16" y="54" fill="#34d399" font-size="20" font-family="Inter, Arial, sans-serif" font-weight="600">Instant confirmation</text>
    </g>
  </g>
</svg>
